<?xml version="1.0" encoding="UTF-8"?>
<!-- Cut from tileset2/panel.color.svg of riichi-mahjong-tiles-svg (MIT OR CC-PDDC) by tools/cut-tiles.mjs -->
<svg xmlns="http://www.w3.org/2000/svg" xmlns:xlink="http://www.w3.org/1999/xlink" viewBox="4560.405 1582.148 479 671.173" width="479" height="671.173">
  <defs>
    <linearGradient
       id="tileface">
      <stop
         style="stop-color:#fefbe6"
         id="stop12" />
    </linearGradient>
    <linearGradient
       id="tileframe">
      <stop
         style="stop-color:#000000"
         id="stop15" />
    </linearGradient>
    <linearGradient
       id="tilegreen">
      <stop
         style="stop-color:#004000"
         id="stop17331" />
    </linearGradient>
    <linearGradient
       id="tilered">
      <stop
         style="stop-color:#800000"
         id="stop17363" />
    </linearGradient>
  </defs>
  <g
     id="9sou"
     transform="translate(4560,1584)">
    <path
       d="M 26.015906,0.1803 454,0.1594 c 0,0 8.10046,3.070197 14.35081,9.322597 6.25035,6.250401 9.03751,14.285915 9.03751,14.285915 l 0.017,619.999718 c 0,0 -2.90016,8.20053 -9.10051,14.50093 -6.23035,6.3404 -14.38082,9.04057 -14.38082,9.04057 l -427.854081,-0.017 c 0,0 -8.447476,-2.91619 -14.520818,-8.99057 -6.074342,-6.07339 -9.140514,-14.62094 -9.143515,-14.62494 l 0.011,-619.847804 c 0,0 3.419192,-8.950573 9.270522,-14.711942 5.850329,-5.759369 14.328807,-8.936572 14.328807,-8.936572 z"
       style="fill:url(#tileface);stroke:url(#tileframe);stroke-width:4"
       id="frame-0" />
    <path
       id="path9378"
       d="m 87.5224,50.5048 c -12.5016,0.2442 -24.986,4.448 -35.3334,11.4388 -6.4134,4.4274 -9.834,14.6876 -3.2798,20.543 3.2118,3.6168 7.433,6.3016 12.0908,7.629 v 33.0224 c -7.4194,6.184 -15.365,13.836 -15.6724,24.197 -0.7892,10.513 6.7174,19.736 15.6724,24.321 -0.3894,10.576 0.7554,21.323 -0.6122,31.811 -7.4742,3.74 -14.9056,11.246 -14.2662,20.231 1.5576,8.109 9.066,14.57 17.4346,14.384 4.5842,0.723 8.7122,-1.486 13.0108,-2.37 13.0296,-0.619 26.47,-0.916 39.48,0.227 6.993,3.141 16.092,3.243 22.367,-1.612 5.201,-4.305 8.89,-12.226 4.707,-18.466 -2.888,-5.455 -7.897,-9.338 -13.062,-12.498 0.16,-10.534 -0.493,-21.276 0.54,-31.666 8.394,-5.64 16.718,-14.674 15.185,-25.588 C 144.589,136.393 137.093,129.18 130,123.192 V 90.1126 c 7.761,-2.3314 16.704,-8.8418 15.549,-17.934 -2.178,-9.5318 -12.227,-14.1132 -20.518,-17.3248 -11.927,-4.732 -24.924,-4.183 -37.5086,-4.349 z m 9.1114,17.5824 c 5.6382,-0.0928 10.8252,3.8068 12.0322,9.394 1.566,5.0906 -3.93,8.912 -3.417,14.0216 -0.917,8.5042 0.936,17.3402 -1.35,25.5702 -3.489,2.643 -8.6518,0.872 -12.7612,1.33 -4.107,0.825 -5.3082,-3.305 -5.0348,-6.513 -0.7728,-8.568 1.2308,-17.7716 -1.6846,-26.087 -5.2844,-6.1274 -0.588,-16.5052 7.235,-17.2982 1.2666,-0.2444 2.5588,-0.3442 3.8482,-0.3442 0.3788,-0.0422 0.7562,-0.0668 1.1322,-0.0736 z M 96.66,132.272 c 4.154,0.13 10.029,0.143 12.215,4.5 -1.852,4.117 -7.712,4.124 -11.6276,4.635 -5.1014,0.024 -12.1764,0.064 -15.123,-4.802 1.904,-4.395 8.3024,-4.1 12.3428,-4.299 0.731,-0.012 1.4616,-0.034 2.1928,-0.034 z m -0.0996,22.864 c 4.1356,0.183 10.4686,0.28 12.1036,4.816 -2.587,4.441 -9.143,4.175 -13.6768,4.488 -4.1964,-0.338 -10.4954,0.095 -12.7016,-4.302 0.9526,-3.958 6.5916,-3.942 9.8364,-4.733 1.473,-0.173 2.9554,-0.264 4.4384,-0.269 z m -0.3354,20.537 c 0.5806,0.007 1.1606,0.02 1.7402,0.046 1.6444,0.089 3.2968,0.246 4.8928,0.671 0.571,0.148 1.116,0.379 1.646,0.634 0.679,0.31 1.358,0.619 2.036,0.929 v 36.774 c -1.022,0.39 -2.037,0.799 -3.064,1.177 -1.482,0.489 -3.039,0.698 -4.588,0.837 -1.106,0.092 -2.2156,0.131 -3.3252,0.126 -2.0632,-0.019 -4.1356,-0.162 -6.1566,-0.594 -0.805,-0.171 -1.5946,-0.417 -2.3468,-0.753 -0.8802,-0.364 -1.7596,-0.729 -2.6396,-1.094 0.137,-9.515 0.2696,-19.03 0.4218,-28.545 0.0398,-2.562 0.079,-5.124 0.1188,-7.686 0.9196,-0.458 1.831,-0.933 2.7552,-1.382 1.0474,-0.447 2.1784,-0.652 3.2988,-0.82 1.7256,-0.237 3.4688,-0.333 5.2106,-0.321 z"
       style="fill:url(#tilegreen)" />
    <path
       id="path9392"
       d="m 239.295,51.6502 c -1.202,-0.0074 -2.405,0.0076 -3.606,0.0248 -3.175,0.063 -6.352,0.1696 -9.513,0.4864 -2.539,0.246 -5.051,0.7236 -7.531,1.3124 -5.009,1.2076 -9.909,2.9272 -14.493,5.291 -2.989,1.553 -5.873,3.359 -8.381,5.622 -1.658,1.509 -3.185,3.2226 -4.171,5.2544 -0.698,1.383 -1.023,2.9478 -0.935,4.4942 0.139,2.3432 1.1,4.5734 2.438,6.4776 2.114,2.989 5.115,5.298 8.45,6.7764 1.566,0.6726 3.192,1.1896 4.787,1.7826 v 34.557 c -1.534,1.402 -3.069,2.804 -4.604,4.207 -2.306,2.079 -4.559,4.25 -6.41,6.755 -1.278,1.712 -2.338,3.589 -3.096,5.588 -0.715,1.889 -1.183,3.868 -1.442,5.87 -0.507,3.799 0.157,7.72 1.739,11.201 1.879,4.143 4.991,7.653 8.67,10.294 1.657,1.176 3.426,2.181 5.143,3.265 v 33.162 c -0.123,0.078 -0.247,0.156 -0.37,0.233 -1.608,1.03 -3.244,2.015 -4.839,3.066 -2.393,1.59 -4.634,3.463 -6.389,5.753 -1.464,1.893 -2.543,4.118 -2.921,6.492 -0.407,2.469 0.007,5.026 0.948,7.329 1.137,2.865 3.157,5.377 5.734,7.073 2.83,1.883 6.243,2.799 9.627,2.816 2.5,0.017 4.994,-0.435 7.35,-1.264 0.991,-0.331 1.929,-0.798 2.896,-1.19 1.885,-0.775 3.919,-1.085 5.941,-1.246 3.133,-0.235 6.277,-0.271 9.417,-0.295 4.633,-0.019 9.266,-0.04 13.899,0.025 2.667,0.052 5.341,0.079 7.995,0.36 1.82,0.176 3.635,0.561 5.322,1.286 2.021,0.961 4.179,1.638 6.392,1.976 2.917,0.438 5.937,0.363 8.791,-0.417 1.664,-0.451 3.269,-1.156 4.667,-2.174 1.916,-1.417 3.502,-3.258 4.721,-5.3 1.009,-1.713 1.814,-3.586 2.067,-5.572 0.157,-1.041 0.049,-2.11 -0.24,-3.119 -0.57,-1.919 -1.545,-3.694 -2.675,-5.338 -1.83,-2.629 -4.053,-5.009 -6.671,-6.868 -1.757,-1.178 -3.564,-2.28 -5.342,-3.425 v -32.927 c 0.022,-0.148 -0.036,-0.307 0.017,-0.449 1.198,-0.743 2.412,-1.476 3.606,-2.23 3.22,-2.025 6.142,-4.586 8.332,-7.711 2.017,-2.851 3.342,-6.203 3.72,-9.68 0.413,-3.733 -0.283,-7.541 -1.745,-10.984 -1.767,-4.164 -4.561,-7.827 -7.805,-10.952 -2.011,-1.883 -4.086,-3.697 -6.126,-5.55 V 89.1718 c 0.154,-0.0554 0.308,-0.1102 0.462,-0.1654 1.298,-0.4856 2.622,-0.9012 3.901,-1.437 2.551,-1.109 4.86,-2.748 6.813,-4.7242 1.536,-1.5708 2.899,-3.3654 3.694,-5.4302 0.394,-1.1356 0.737,-2.3042 0.828,-3.5082 0.114,-1.269 -0.254,-2.5232 -0.749,-3.6782 -0.418,-1.041 -0.969,-2.0282 -1.648,-2.9224 -1.292,-1.6856 -2.897,-3.106 -4.599,-4.3652 -2.817,-2.0622 -5.907,-3.7302 -9.093,-5.1446 -5.009,-2.2064 -10.274,-3.8238 -15.647,-4.8604 -2.152,-0.4298 -4.331,-0.7084 -6.519,-0.8788 -3.596,-0.2702 -7.201,-0.3954 -10.807,-0.4072 z m 0.477,14.562 c 1.913,0.0172 3.823,0.3318 5.634,0.9434 1.474,0.5026 2.89,1.1994 4.15,2.1182 1.387,1.0894 2.407,2.57 3.24,4.1074 0.976,1.8336 1.674,3.8412 1.848,5.9194 0.051,0.6834 -0.027,1.3732 -0.214,2.0318 -0.313,1.1892 -0.788,2.3318 -1.357,3.4204 -0.406,0.7776 -0.925,1.498 -1.246,2.3174 -0.492,1.1802 -0.714,2.4522 -0.844,3.7178 -0.222,2.0782 -0.243,4.1728 -0.29,6.2622 -0.078,4.7408 0.033,9.4838 -0.116,14.2238 -0.064,1.663 -0.165,3.339 -0.564,4.961 -0.254,0.981 -0.692,1.966 -1.485,2.63 -0.732,0.615 -1.673,0.911 -2.602,1.065 -1.403,0.241 -2.833,0.236 -4.252,0.265 -0.658,0.007 -1.315,0.007 -1.972,0.007 -2.146,-0.021 -4.306,0.062 -6.438,-0.239 -1.007,-0.15 -2.038,-0.447 -2.825,-1.12 -0.747,-0.65 -1.184,-1.581 -1.427,-2.526 -0.429,-1.595 -0.503,-3.256 -0.582,-4.898 -0.129,-3.155 -0.073,-6.313 -0.094,-9.47 -0.007,-3.3676 0,-6.7396 -0.224,-10.1004 -0.115,-1.5248 -0.295,-3.0688 -0.832,-4.5074 -0.306,-0.8084 -0.746,-1.5554 -1.198,-2.2894 -0.87,-1.5064 -1.551,-3.1734 -1.636,-4.9292 -0.095,-1.7638 0.368,-3.5012 0.987,-5.1372 0.464,-1.2616 1.081,-2.481 1.945,-3.5172 1.725,-2.122 4.158,-3.589 6.746,-4.4092 1.822,-0.5794 3.736,-0.8608 5.648,-0.8438 z m -0.578,64.0458 c 2.396,-0.014 4.796,0.224 7.131,0.766 1.883,0.447 3.737,1.11 5.384,2.139 0.915,0.587 1.774,1.344 2.227,2.352 0.331,0.757 0.341,1.649 0.008,2.406 -0.435,1.046 -1.291,1.845 -2.186,2.503 -0.94,0.694 -2.001,1.215 -3.117,1.557 -1.766,0.56 -3.607,0.836 -5.446,1.012 -1.295,0.119 -2.594,0.168 -3.894,0.165 -2.84,-0.026 -5.701,-0.264 -8.448,-1.017 -1.214,-0.336 -2.408,-0.819 -3.419,-1.584 -0.976,-0.713 -1.871,-1.569 -2.502,-2.608 -0.265,-0.451 -0.419,-0.975 -0.383,-1.5 0.036,-0.962 0.563,-1.843 1.255,-2.486 1.037,-0.994 2.359,-1.624 3.688,-2.127 2.343,-0.866 4.826,-1.286 7.308,-1.481 0.796,-0.059 1.595,-0.092 2.394,-0.097 z m 1.545,23.174 c 2.619,0.053 5.25,0.365 7.76,1.138 1.511,0.474 2.993,1.126 4.236,2.124 0.723,0.592 1.358,1.365 1.554,2.299 0.175,0.84 -0.073,1.723 -0.545,2.425 -0.681,1.048 -1.699,1.82 -2.743,2.477 -1.256,0.785 -2.644,1.363 -4.096,1.661 -2.037,0.438 -4.13,0.499 -6.205,0.537 -0.467,0.007 -0.934,0.008 -1.401,0.007 -2.87,-0.02 -5.763,-0.261 -8.535,-1.041 -1.561,-0.448 -3.104,-1.076 -4.37,-2.114 -0.843,-0.698 -1.529,-1.64 -1.74,-2.729 -0.131,-0.637 -0.055,-1.32 0.252,-1.897 0.465,-0.914 1.295,-1.578 2.155,-2.104 1.517,-0.914 3.22,-1.466 4.932,-1.885 2.859,-0.682 5.81,-0.947 8.746,-0.898 z m -0.621,22.295 c 0.617,0.008 1.233,0.028 1.849,0.057 1.615,0.089 3.237,0.227 4.813,0.603 0.553,0.131 1.088,0.327 1.597,0.579 0.721,0.329 1.443,0.658 2.164,0.987 v 36.774 c -1.012,0.393 -2.017,0.805 -3.033,1.186 -1.34,0.445 -2.749,0.637 -4.15,0.78 -1.346,0.128 -2.7,0.182 -4.053,0.18 -2.045,-0.013 -4.098,-0.127 -6.111,-0.503 -0.814,-0.152 -1.616,-0.373 -2.376,-0.703 -0.786,-0.313 -1.573,-0.627 -2.359,-0.94 0,-7.981 -0.007,-15.961 0.008,-23.942 0.014,-2.824 0.01,-5.65 0.135,-8.472 0.065,-1.149 0.12,-2.308 0.389,-3.431 0.145,-0.59 0.405,-1.194 0.912,-1.561 0.382,-0.277 0.815,-0.48 1.253,-0.651 1.102,-0.39 2.268,-0.554 3.424,-0.694 1.839,-0.201 3.69,-0.274 5.54,-0.249 z"
       style="fill:url(#tilered)" />
    <path
       id="path9406"
       d="m 378.418,51.8422 c -1.273,-0.0076 -2.546,0 -3.82,0.0134 -1.484,0.0338 -2.973,0.015 -4.452,0.1786 -1.991,0.4278 -3.985,0.8492 -5.982,1.2496 -1.446,0.275 -2.889,0.5734 -4.308,0.9698 -3.274,0.9262 -6.464,2.1384 -9.565,3.5362 -2.732,1.2464 -5.426,2.6028 -7.933,4.2626 -2.507,1.6146 -4.658,3.818 -6.082,6.4482 -1.092,2.0122 -1.775,4.3052 -1.629,6.6108 0.044,1.0402 0.34,2.059 0.806,2.9868 0.913,1.7802 2.208,3.3384 3.637,4.7272 2.013,1.932 4.303,3.611 6.866,4.7358 1.44,0.5928 2.924,1.071 4.384,1.6112 V 123.73 c -1.534,1.402 -3.069,2.804 -4.604,4.207 -2.306,2.078 -4.559,4.25 -6.41,6.754 -1.278,1.712 -2.338,3.589 -3.096,5.588 -0.715,1.889 -1.183,3.868 -1.442,5.87 -0.507,3.8 0.157,7.721 1.739,11.202 1.879,4.142 4.991,7.652 8.67,10.293 1.657,1.177 3.426,2.182 5.143,3.265 v 6.551 c -0.008,5.548 0.015,11.097 -0.012,16.645 -0.024,2.316 -0.008,4.634 -0.17,6.945 -0.086,0.943 -0.13,1.916 -0.48,2.807 -0.165,0.495 -0.557,0.882 -1.009,1.123 -0.749,0.347 -1.495,0.703 -2.209,1.116 -2.436,1.408 -4.587,3.282 -6.4,5.428 -1.609,1.919 -2.981,4.065 -3.863,6.417 -0.592,1.603 -0.977,3.323 -0.819,5.039 0.188,1.695 0.814,3.312 1.62,4.803 1.226,2.237 2.853,4.276 4.866,5.852 1.068,0.857 2.297,1.497 3.588,1.946 2.442,0.838 5.032,1.185 7.607,1.21 0.727,0 1.455,-0.025 2.18,-0.087 1.711,-0.158 3.445,-0.456 4.999,-1.224 0.519,-0.303 1.076,-0.538 1.658,-0.684 1.456,-0.343 2.952,-0.477 4.442,-0.579 3.829,-0.232 7.666,-0.274 11.502,-0.299 5.389,-0.021 10.778,-0.04 16.167,0.057 2.825,0.066 5.655,0.108 8.467,0.397 1.218,0.145 2.468,0.269 3.605,0.757 0.54,0.286 1.086,0.564 1.662,0.77 1.743,0.604 3.595,0.835 5.432,0.883 1.965,0.041 3.938,-0.118 5.864,-0.514 1.776,-0.379 3.546,-0.931 5.087,-1.915 1.881,-1.225 3.458,-2.881 4.73,-4.721 1.17,-1.712 2.138,-3.597 2.586,-5.634 0.241,-1.021 0.286,-2.089 0.114,-3.124 -0.309,-1.761 -1.042,-3.419 -1.938,-4.955 -1.825,-3.077 -4.277,-5.777 -7.143,-7.917 -1.893,-1.344 -3.838,-2.615 -5.754,-3.927 -0.007,-1.932 -0.008,-3.863 -0.013,-5.795 0,-5.791 -0.077,-11.582 0.034,-17.372 0.068,-2.728 0.116,-5.46 0.345,-8.179 0.072,-0.641 0.078,-1.302 0.283,-1.916 0.25,-0.079 0.476,-0.218 0.694,-0.361 1.803,-1.248 3.474,-2.672 5.124,-4.112 2.567,-2.198 4.884,-4.732 6.589,-7.662 1.548,-2.631 2.544,-5.601 2.773,-8.65 0.276,-3.521 -0.517,-7.072 -1.993,-10.263 -1.826,-3.934 -4.584,-7.37 -7.698,-10.361 -2.036,-1.905 -4.134,-3.74 -6.198,-5.614 V 89.1724 c 0.147,-0.0524 0.293,-0.1056 0.44,-0.1582 1.157,-0.4328 2.334,-0.8112 3.48,-1.273 1.273,-0.538 2.49,-1.2048 3.662,-1.935 1.53,-0.942 2.95,-2.0678 4.188,-3.3706 1.495,-1.556 2.769,-3.3756 3.437,-5.4434 0.557,-1.6764 0.633,-3.5042 0.238,-5.225 -0.492,-2.1448 -1.665,-4.0762 -3.099,-5.7218 -1.934,-2.1994 -4.307,-3.9698 -6.812,-5.4682 -4.098,-2.4336 -8.552,-4.2128 -13.092,-5.6324 -2.325,-0.7436 -4.694,-1.3478 -7.099,-1.768 -4.005,-0.695 -8.069,-0.9448 -12.126,-1.1 -3.818,-0.1274 -7.638,-0.2204 -11.458,-0.2344 z m 5.104,14.6586 c 0.713,0 1.426,0.027 2.134,0.0762 2.366,0.1788 4.757,0.7338 6.791,1.9966 1.52,0.9576 2.743,2.3244 3.724,3.816 1.071,1.6428 1.877,3.4734 2.269,5.3994 0.148,0.7656 0.245,1.5482 0.209,2.329 -0.073,0.9152 -0.372,1.793 -0.681,2.6514 -0.409,1.0932 -0.944,2.1376 -1.555,3.1304 -0.466,0.7906 -0.818,1.6448 -1.035,2.5386 -0.414,1.6502 -0.494,3.3576 -0.586,5.0508 -0.139,3.1352 -0.119,6.275 -0.133,9.4128 0,3.237 0.032,6.478 -0.14,9.712 -0.087,1.387 -0.226,2.786 -0.643,4.118 -0.3,0.911 -0.82,1.793 -1.643,2.322 -0.95,0.626 -2.103,0.817 -3.213,0.928 -1.678,0.162 -3.367,0.124 -5.05,0.138 h -0.575 c -2.133,-0.021 -4.282,0.063 -6.397,-0.265 -0.996,-0.167 -2.014,-0.502 -2.753,-1.22 -0.739,-0.725 -1.124,-1.726 -1.343,-2.719 -0.365,-1.594 -0.423,-3.237 -0.491,-4.865 -0.116,-3.557 -0.048,-7.116 -0.078,-10.674 -0.012,-2.9708 -0.026,-5.9456 -0.25,-8.908 -0.145,-1.6854 -0.386,-3.408 -1.156,-4.9336 -0.375,-0.7776 -0.881,-1.4808 -1.261,-2.2558 -0.723,-1.4114 -1.231,-2.9684 -1.229,-4.5674 -0.011,-1.8558 0.558,-3.6558 1.239,-5.3612 0.522,-1.2912 1.23,-2.5172 2.177,-3.545 1.436,-1.5856 3.326,-2.7208 5.353,-3.3794 2.035,-0.6746 4.177,-0.9258 6.316,-0.9258 z m 0.557,64.1562 c 2.253,-0.018 4.509,0.074 6.728,0.489 1.243,0.235 2.477,0.574 3.609,1.151 1.126,0.575 2.236,1.247 3.084,2.2 0.524,0.588 0.93,1.317 0.988,2.114 0.077,0.891 -0.335,1.753 -0.912,2.408 -0.724,0.817 -1.662,1.412 -2.633,1.893 -1.745,0.839 -3.634,1.339 -5.535,1.673 -2.114,0.36 -4.263,0.501 -6.406,0.496 -3.145,-0.015 -6.319,-0.45 -9.268,-1.577 -1.477,-0.573 -2.92,-1.332 -4.045,-2.467 -0.621,-0.641 -1.127,-1.459 -1.186,-2.369 -0.048,-0.808 0.293,-1.599 0.823,-2.197 0.712,-0.828 1.676,-1.377 2.606,-1.923 1.178,-0.661 2.466,-1.125 3.797,-1.355 2.01,-0.372 4.06,-0.423 6.098,-0.491 0.749,-0.022 1.5,-0.04 2.252,-0.046 z m 0.798,22.901 c 2.408,0.02 4.832,0.25 7.157,0.899 1.277,0.36 2.511,0.893 3.61,1.641 0.921,0.613 1.796,1.373 2.298,2.379 0.347,0.711 0.425,1.564 0.135,2.308 -0.356,0.961 -1.123,1.7 -1.946,2.277 -1.389,0.965 -2.998,1.555 -4.621,1.992 -2.721,0.719 -5.55,0.967 -8.357,0.967 -2.828,-0.017 -5.676,-0.224 -8.422,-0.935 -1.513,-0.401 -3.02,-0.96 -4.275,-1.917 -0.796,-0.614 -1.471,-1.452 -1.681,-2.454 -0.169,-0.811 -0.054,-1.679 0.307,-2.423 0.455,-0.859 1.261,-1.465 2.081,-1.951 1.53,-0.887 3.234,-1.418 4.944,-1.832 2.87,-0.676 5.824,-0.965 8.77,-0.951 z m -0.652,22.115 c 0.581,0.007 1.161,0.02 1.74,0.046 1.645,0.089 3.297,0.246 4.893,0.671 0.571,0.148 1.116,0.379 1.646,0.634 0.679,0.31 1.358,0.619 2.037,0.929 v 36.774 c -1.023,0.39 -2.038,0.799 -3.065,1.177 -1.482,0.489 -3.039,0.698 -4.588,0.837 -1.106,0.092 -2.215,0.131 -3.325,0.126 -2.063,-0.019 -4.136,-0.162 -6.157,-0.594 -0.805,-0.171 -1.594,-0.417 -2.346,-0.753 -0.881,-0.364 -1.76,-0.729 -2.64,-1.094 0.137,-9.515 0.27,-19.03 0.422,-28.545 0.04,-2.562 0.079,-5.124 0.118,-7.686 0.92,-0.458 1.832,-0.933 2.756,-1.382 1.047,-0.447 2.178,-0.652 3.299,-0.82 1.725,-0.237 3.468,-0.333 5.21,-0.321 z"
       style="fill:url(#tilegreen)" />
    <path
       id="path9420"
       d="m 91.9156,239.792 c -2.4754,0.04 -4.9484,0.18 -7.4108,0.444 -3.2224,0.336 -6.4092,0.953 -9.5566,1.714 -5.0972,1.242 -10.1186,2.888 -14.8286,5.217 -3.1246,1.557 -6.1408,3.402 -8.707,5.786 -1.736,1.618 -3.275,3.509 -4.1822,5.721 -0.6384,1.494 -0.881,3.158 -0.6752,4.771 0.2982,2.314 1.4166,4.455 2.8798,6.246 2.0304,2.469 4.681,4.371 7.5308,5.787 1.7528,0.857 3.582,1.543 5.3746,2.309 v 33.806 c -0.072,0.118 -0.209,0.209 -0.3048,0.317 -2.1054,2.07 -4.227,4.122 -6.328,6.197 -1.8592,1.858 -3.728,3.738 -5.215,5.918 -1.1466,1.642 -1.9348,3.506 -2.5078,5.418 -0.6426,2.217 -1.1624,4.475 -1.478,6.763 -0.1496,0.967 -0.2152,1.951 -0.12,2.927 0.221,2.148 0.9606,4.211 1.9248,6.132 1.8638,3.663 4.5066,6.914 7.6392,9.567 2.1062,1.704 4.2622,3.347 6.3896,5.026 v 32.297 c -1.4602,0.981 -2.9206,1.962 -4.3814,2.943 -2.3198,1.518 -4.5426,3.229 -6.3706,5.327 -1.6548,1.88 -2.9708,4.103 -3.583,6.545 -0.489,1.89 -0.488,3.88 -0.164,5.796 0.3444,2.148 1.1398,4.247 2.4638,5.986 1.4918,1.961 3.5304,3.426 5.6734,4.601 2.5718,1.454 5.5312,2.168 8.4784,2.177 1.5798,0.007 3.1602,-0.183 4.6948,-0.557 1.3884,-0.342 2.746,-0.823 4.0254,-1.463 0.6964,-0.375 1.4706,-0.566 2.2442,-0.712 2.0232,-0.366 4.0748,-0.552 6.1244,-0.7 4.6276,-0.313 9.268,-0.426 13.9058,-0.428 4.368,0.008 8.7374,0.092 13.0974,0.367 2.205,0.152 4.414,0.315 6.595,0.683 0.879,0.168 1.785,0.309 2.579,0.743 3.893,1.945 8.456,2.581 12.715,1.636 1.505,-0.323 2.956,-0.876 4.313,-1.6 1.991,-1.071 3.921,-2.339 5.433,-4.041 1.268,-1.402 2.148,-3.139 2.581,-4.976 0.34,-1.511 0.458,-3.07 0.366,-4.616 -0.131,-2.46 -0.993,-4.849 -2.309,-6.92 -1.663,-2.601 -3.932,-4.753 -6.366,-6.627 -1.892,-1.429 -3.865,-2.748 -5.796,-4.122 v -32.218 c 0.457,-0.345 0.915,-0.69 1.372,-1.035 1.951,-1.498 3.955,-2.927 5.861,-4.483 2.087,-1.714 4.066,-3.615 5.537,-5.897 1.242,-1.897 2.016,-4.075 2.386,-6.305 0.324,-2.047 0.404,-4.129 0.304,-6.198 -0.152,-3.464 -0.974,-6.918 -2.558,-10.012 -1.606,-3.157 -3.924,-5.902 -6.516,-8.295 -2.098,-1.883 -4.26,-3.696 -6.386,-5.548 v -34.419 c 0.781,-0.326 1.564,-0.653 2.346,-0.977 2.052,-0.824 4.076,-1.742 5.945,-2.931 2.204,-1.404 4.246,-3.159 5.642,-5.392 1.012,-1.599 1.628,-3.461 1.676,-5.357 0.062,-2.088 -0.568,-4.152 -1.585,-5.961 -1.333,-2.36 -3.256,-4.336 -5.371,-6.008 -2.711,-2.124 -5.742,-3.818 -8.902,-5.173 -3.573,-1.512 -7.3,-2.629 -11.075,-3.511 -5.909,-1.366 -11.941,-2.194 -17.9966,-2.533 -2.4712,-0.133 -4.9484,-0.192 -7.4238,-0.152 z m 3.3002,14.833 c 1.2232,0.017 2.4456,0.152 3.6416,0.394 1.7616,0.362 3.4806,0.954 5.0756,1.788 2.647,1.458 4.65,3.952 5.709,6.764 0.923,2.433 1.174,5.168 0.442,7.686 -0.393,1.346 -1.104,2.597 -2.055,3.628 -0.572,0.762 -0.745,1.728 -0.898,2.646 -0.337,2.285 -0.358,4.599 -0.423,6.905 -0.102,4.965 0.021,9.934 -0.122,14.899 -0.059,1.698 -0.154,3.41 -0.551,5.068 -0.245,0.969 -0.666,1.944 -1.441,2.606 -0.701,0.6 -1.605,0.896 -2.502,1.046 -1.404,0.248 -2.8362,0.233 -4.257,0.261 -0.57,0.007 -1.141,0.007 -1.711,0.007 -2.218,-0.024 -4.4458,0.071 -6.6548,-0.18 -0.9936,-0.123 -2.0146,-0.358 -2.8402,-0.952 -0.6468,-0.471 -1.106,-1.161 -1.383,-1.904 -0.4316,-1.12 -0.5736,-2.323 -0.6898,-3.509 -0.1876,-2.158 -0.1882,-4.326 -0.2096,-6.49 -0.0246,-4.333 0.0354,-8.668 -0.101,-12.998 -0.0616,-1.682 -0.115,-3.371 -0.4086,-5.03 -0.1664,-0.952 -0.4642,-1.92 -1.1016,-2.665 -0.5022,-0.539 -0.8598,-1.196 -1.1074,-1.887 -0.4926,-1.407 -0.6794,-2.906 -0.7106,-4.391 -0.0186,-1.591 0.1436,-3.189 0.5186,-4.736 0.3294,-1.329 0.8466,-2.632 1.6846,-3.726 1.5182,-2.02 3.716,-3.459 6.0864,-4.285 1.928,-0.671 3.97,-0.97 6.0088,-0.942 z m -1.8954,64.147 c 0.4678,-0.008 0.937,-0.008 1.4048,0 2.733,0.047 5.4658,0.31 8.1458,0.855 1.261,0.266 2.517,0.604 3.686,1.155 0.778,0.377 1.436,0.95 2.064,1.536 0.689,0.668 1.308,1.456 1.595,2.385 0.218,0.734 0.16,1.555 -0.213,2.231 -0.493,0.943 -1.365,1.615 -2.263,2.149 -1.418,0.835 -2.994,1.357 -4.574,1.79 -1.876,0.478 -3.8166,0.626 -5.7456,0.682 -0.4776,0.012 -0.9562,0.017 -1.434,0.014 -3.0398,-0.032 -6.09,-0.286 -9.0586,-0.961 -1.5474,-0.357 -3.1058,-0.878 -4.3638,-1.879 -0.8342,-0.661 -1.5234,-1.574 -1.7184,-2.639 -0.161,-0.84 -0.0074,-1.722 0.3854,-2.48 0.6124,-1.221 1.6864,-2.141 2.8448,-2.83 1.541,-0.91 3.2824,-1.448 5.0478,-1.705 1.3896,-0.205 2.7926,-0.286 4.1968,-0.304 z m -0.3692,23.042 c 1.22,-0.028 2.4418,0 3.6592,0.067 2.4186,0.139 4.8366,0.426 7.1936,0.998 1.111,0.278 2.227,0.611 3.223,1.191 0.597,0.373 1.128,0.842 1.642,1.321 0.768,0.74 1.467,1.617 1.743,2.666 0.191,0.752 0.072,1.581 -0.353,2.234 -0.551,0.882 -1.445,1.483 -2.358,1.942 -1.6,0.792 -3.354,1.206 -5.105,1.499 -2.315,0.376 -4.6642,0.493 -7.0066,0.488 -2.8726,-0.02 -5.764,-0.171 -8.5782,-0.784 -1.5142,-0.339 -3.0302,-0.815 -4.3316,-1.682 -0.8326,-0.562 -1.5618,-1.352 -1.8426,-2.336 -0.2544,-0.906 -0.054,-1.889 0.394,-2.701 0.647,-1.202 1.7034,-2.131 2.8476,-2.846 1.5776,-0.982 3.3892,-1.543 5.2252,-1.777 1.2096,-0.167 2.4274,-0.253 3.6474,-0.28 z m 2.1358,22.2 c 1.7734,0 3.5462,0.126 5.298,0.399 1.279,0.214 2.567,0.484 3.755,1.021 0.553,0.265 1.127,0.581 1.447,1.128 0.398,0.678 0.513,1.473 0.62,2.239 0.204,1.727 0.235,3.47 0.276,5.207 0.076,4.498 0.051,8.996 0.057,13.494 -0.007,3.048 0.013,6.098 -0.133,9.142 -0.088,1.542 -0.198,3.096 -0.581,4.597 -0.258,0.983 -0.681,1.98 -1.477,2.649 -0.799,0.678 -1.851,0.939 -2.867,1.075 -1.5624,0.195 -3.142,0.167 -4.7136,0.175 -1.0886,0 -2.1768,0 -3.2652,0 -1.469,-0.012 -2.9482,0.001 -4.4032,-0.23 -0.9666,-0.158 -1.9568,-0.475 -2.669,-1.179 -0.75,-0.733 -1.1144,-1.758 -1.3404,-2.76 -0.3434,-1.589 -0.4166,-3.221 -0.473,-4.841 -0.0846,-3.207 -0.0128,-6.415 0.0292,-9.622 0.1038,-6.792 0.209,-13.584 0.3134,-20.376 1.2706,-0.453 2.5362,-0.922 3.81,-1.366 1.4706,-0.454 3.013,-0.62 4.544,-0.709 0.5902,-0.029 1.1814,-0.043 1.7724,-0.044 z"
       style="fill:url(#tilegreen)" />
    <path
       id="path9434"
       d="m 238.357,239.741 c -0.764,0 -1.528,0.013 -2.292,0.033 -5.598,0.146 -11.184,0.832 -16.648,2.061 -5.084,1.151 -10.089,2.753 -14.763,5.082 -3.141,1.575 -6.158,3.465 -8.726,5.88 -1.813,1.71 -3.42,3.698 -4.4,6.007 -0.777,1.79 -1.098,3.795 -0.8,5.731 0.307,2.041 1.312,3.925 2.64,5.485 1.545,1.801 3.48,3.228 5.532,4.398 2.366,1.361 4.936,2.305 7.44,3.369 v 33.986 c -2.095,2.034 -4.199,4.061 -6.294,6.097 -1.871,1.831 -3.784,3.648 -5.319,5.781 -1.143,1.549 -1.934,3.328 -2.524,5.152 -0.922,2.801 -1.497,5.736 -1.472,8.693 0.01,2.946 0.66,5.888 1.901,8.56 1.64,3.547 4.294,6.551 7.348,8.953 1.985,1.59 4.204,2.845 6.36,4.181 v 32.965 c -1.351,0.902 -2.703,1.804 -4.054,2.707 -1.207,0.785 -2.401,1.598 -3.503,2.527 -2.62,2.189 -4.815,4.959 -6.05,8.163 -0.941,2.416 -1.281,5.082 -0.84,7.645 0.422,2.549 1.657,4.937 3.413,6.823 1.721,1.866 3.921,3.233 6.252,4.206 1.941,0.829 4.014,1.458 6.142,1.46 1.207,0.008 2.41,-0.166 3.584,-0.439 1.633,-0.375 3.209,-0.948 4.776,-1.534 1.502,-0.582 3.07,-0.99 4.659,-1.24 2.046,-0.316 4.116,-0.431 6.183,-0.51 4.013,-0.136 8.029,-0.137 12.044,-0.142 4.322,0.007 8.646,-0.008 12.966,0.137 2.584,0.102 5.182,0.222 7.718,0.765 1.631,0.327 3.182,0.946 4.742,1.516 2.118,0.749 4.314,1.389 6.575,1.443 2.116,0.064 4.197,-0.507 6.138,-1.308 1.903,-0.754 3.708,-1.786 5.247,-3.142 2.14,-1.866 3.743,-4.362 4.466,-7.113 0.721,-2.685 0.543,-5.587 -0.436,-8.183 -0.671,-1.815 -1.754,-3.452 -3.024,-4.903 -1.706,-1.911 -3.58,-3.675 -5.606,-5.244 -1.663,-1.235 -3.384,-2.391 -5.072,-3.592 v -32.219 c 0.535,-0.414 1.07,-0.828 1.605,-1.242 2.08,-1.638 4.221,-3.198 6.24,-4.91 1.984,-1.694 3.872,-3.555 5.243,-5.791 1.156,-1.855 1.832,-3.978 2.136,-6.135 0.255,-1.929 0.31,-3.883 0.214,-5.825 -0.158,-3.486 -0.987,-6.961 -2.589,-10.071 -1.61,-3.146 -3.934,-5.877 -6.536,-8.247 -2.076,-1.837 -4.211,-3.606 -6.313,-5.411 v -34.559 c 0.906,-0.38 1.815,-0.754 2.721,-1.132 2.144,-0.863 4.241,-1.874 6.148,-3.188 2.227,-1.532 4.246,-3.473 5.502,-5.893 0.877,-1.662 1.319,-3.557 1.219,-5.436 -0.107,-2.18 -0.941,-4.272 -2.142,-6.076 -1.578,-2.357 -3.726,-4.281 -6.049,-5.884 -3.089,-2.114 -6.488,-3.742 -9.982,-5.066 -5.083,-1.912 -10.379,-3.228 -15.737,-4.098 -5.282,-0.85 -10.632,-1.287 -15.983,-1.273 z m 1.454,14.768 c 0.925,0.024 1.848,0.123 2.758,0.293 1.504,0.269 2.993,0.664 4.399,1.27 1.485,0.668 2.751,1.742 3.841,2.937 1.195,1.332 2.171,2.859 2.888,4.499 0.557,1.297 0.943,2.69 0.963,4.109 -0.012,1.008 -0.297,1.987 -0.585,2.945 -0.4,1.268 -0.931,2.492 -1.554,3.665 -0.423,0.82 -0.791,1.671 -1.019,2.567 -0.546,2.027 -0.635,4.136 -0.732,6.224 -0.14,3.713 -0.1,7.432 -0.112,11.147 -0.008,2.513 -0.008,5.03 -0.194,7.537 -0.104,1.228 -0.268,2.468 -0.707,3.627 -0.328,0.833 -0.885,1.608 -1.679,2.051 -1.001,0.582 -2.176,0.732 -3.309,0.83 -1.865,0.149 -3.736,0.093 -5.604,0.11 -1.933,-0.016 -3.875,0.047 -5.797,-0.193 -1.007,-0.135 -2.048,-0.388 -2.859,-1.034 -0.781,-0.61 -1.226,-1.544 -1.487,-2.479 -0.397,-1.485 -0.506,-3.026 -0.579,-4.556 -0.168,-4.189 -0.071,-8.383 -0.114,-12.574 -0.024,-2.897 -0.049,-5.799 -0.3,-8.686 -0.106,-1.048 -0.244,-2.103 -0.611,-3.096 -0.18,-0.461 -0.458,-0.884 -0.794,-1.25 -0.72,-0.973 -1.121,-2.134 -1.474,-3.279 -0.637,-2.194 -0.752,-4.565 -0.149,-6.781 0.666,-2.503 2.177,-4.753 4.179,-6.388 2.229,-1.84 5.008,-2.956 7.862,-3.34 0.917,-0.128 1.843,-0.179 2.769,-0.155 z m -2.334,64.241 c 2.946,-0.017 5.895,0.233 8.792,0.77 1.402,0.27 2.802,0.614 4.115,1.187 0.588,0.263 1.125,0.628 1.611,1.049 0.879,0.72 1.721,1.555 2.168,2.619 0.293,0.724 0.301,1.57 -0.038,2.281 -0.404,0.9 -1.129,1.615 -1.924,2.179 -1.354,0.943 -2.945,1.478 -4.533,1.875 -2.573,0.627 -5.231,0.835 -7.874,0.84 -3.25,-0.021 -6.517,-0.353 -9.652,-1.238 -1.471,-0.425 -2.932,-0.983 -4.177,-1.893 -0.678,-0.507 -1.29,-1.179 -1.509,-2.015 -0.201,-0.81 0.024,-1.665 0.425,-2.378 0.626,-1.141 1.613,-2.037 2.666,-2.779 1.319,-0.912 2.808,-1.584 4.368,-1.961 1.821,-0.421 3.699,-0.512 5.562,-0.536 z m 1.65,23.097 c 2.058,0.008 4.119,0.08 6.166,0.302 1.705,0.195 3.437,0.541 4.941,1.402 0.946,0.545 1.8,1.239 2.574,2.005 0.73,0.741 1.384,1.62 1.611,2.653 0.16,0.756 0,1.574 -0.442,2.208 -0.588,0.874 -1.506,1.459 -2.439,1.909 -1.655,0.782 -3.461,1.181 -5.26,1.46 -2.258,0.34 -4.545,0.443 -6.826,0.432 -2.915,-0.025 -5.848,-0.23 -8.69,-0.908 -1.504,-0.368 -3.003,-0.868 -4.301,-1.732 -0.779,-0.525 -1.488,-1.24 -1.772,-2.157 -0.24,-0.792 -0.097,-1.661 0.277,-2.388 0.462,-0.93 1.177,-1.712 1.966,-2.377 1.412,-1.158 3.166,-1.813 4.935,-2.192 2.382,-0.512 4.83,-0.613 7.26,-0.616 z m -0.04,22.167 c 1.773,0 3.546,0.126 5.298,0.399 1.279,0.214 2.567,0.484 3.754,1.021 0.556,0.266 1.135,0.58 1.457,1.13 0.396,0.673 0.51,1.465 0.616,2.226 0.203,1.715 0.233,3.444 0.273,5.168 0.072,4.374 0.05,8.749 0.055,13.122 v 15.707 c -1.35,0.558 -2.694,1.132 -4.047,1.683 -1.548,0.57 -3.197,0.804 -4.836,0.924 -0.702,0.048 -1.406,0.069 -2.11,0.066 -2.191,-0.019 -4.391,-0.237 -6.515,-0.791 -1.051,-0.286 -2.101,-0.647 -3.019,-1.247 -0.451,-0.293 -0.764,-0.761 -0.925,-1.27 -0.294,-0.914 -0.354,-1.881 -0.419,-2.833 -0.125,-2.317 -0.1,-4.638 -0.09,-6.958 0.054,-5.954 0.166,-11.907 0.252,-17.861 0.043,-2.789 0.086,-5.579 0.129,-8.368 1.271,-0.453 2.536,-0.922 3.81,-1.365 1.471,-0.455 3.013,-0.621 4.544,-0.709 0.59,-0.03 1.181,-0.044 1.773,-0.045 z"
       style="fill:url(#tilered)" />
    <path
       id="path9448"
       d="m 379.916,239.792 c -2.476,0.04 -4.949,0.18 -7.411,0.444 -3.223,0.336 -6.409,0.953 -9.557,1.714 -5.097,1.242 -10.118,2.888 -14.828,5.217 -3.125,1.557 -6.141,3.402 -8.707,5.786 -1.736,1.618 -3.275,3.509 -4.183,5.721 -0.638,1.494 -0.881,3.158 -0.675,4.771 0.298,2.314 1.417,4.455 2.88,6.246 2.03,2.469 4.681,4.371 7.531,5.787 1.753,0.857 3.582,1.543 5.374,2.309 v 33.806 c -0.072,0.118 -0.209,0.209 -0.304,0.317 -2.106,2.07 -4.227,4.122 -6.328,6.197 -1.86,1.858 -3.728,3.738 -5.215,5.918 -1.147,1.642 -1.935,3.506 -2.508,5.418 -0.643,2.217 -1.163,4.475 -1.478,6.763 -0.15,0.967 -0.215,1.951 -0.12,2.927 0.221,2.148 0.96,4.211 1.925,6.132 1.863,3.663 4.506,6.914 7.639,9.567 2.106,1.704 4.262,3.347 6.389,5.026 v 32.297 c -1.46,0.981 -2.92,1.962 -4.381,2.943 -2.32,1.518 -4.543,3.229 -6.371,5.327 -1.654,1.88 -2.97,4.103 -3.583,6.545 -0.489,1.89 -0.488,3.88 -0.164,5.796 0.345,2.148 1.14,4.247 2.464,5.986 1.492,1.961 3.531,3.426 5.674,4.601 2.571,1.454 5.531,2.168 8.478,2.177 1.58,0.007 3.16,-0.183 4.695,-0.557 1.388,-0.342 2.746,-0.823 4.025,-1.463 0.697,-0.375 1.471,-0.566 2.244,-0.712 2.024,-0.366 4.075,-0.552 6.125,-0.7 4.627,-0.313 9.268,-0.426 13.906,-0.428 4.368,0.008 8.737,0.092 13.097,0.367 2.205,0.152 4.414,0.315 6.595,0.683 0.879,0.168 1.785,0.309 2.579,0.743 3.893,1.945 8.456,2.581 12.715,1.636 1.505,-0.323 2.956,-0.876 4.313,-1.6 1.991,-1.071 3.921,-2.339 5.433,-4.041 1.268,-1.402 2.148,-3.139 2.581,-4.976 0.34,-1.511 0.458,-3.07 0.366,-4.616 -0.131,-2.46 -0.993,-4.849 -2.309,-6.92 -1.663,-2.601 -3.932,-4.753 -6.366,-6.627 -1.892,-1.429 -3.865,-2.748 -5.796,-4.122 v -32.218 c 0.457,-0.345 0.915,-0.69 1.372,-1.035 1.951,-1.498 3.955,-2.927 5.861,-4.483 2.087,-1.714 4.066,-3.615 5.537,-5.897 1.242,-1.897 2.016,-4.075 2.386,-6.305 0.324,-2.047 0.404,-4.129 0.304,-6.198 -0.152,-3.464 -0.974,-6.918 -2.558,-10.012 -1.606,-3.157 -3.924,-5.902 -6.516,-8.295 -2.098,-1.883 -4.26,-3.696 -6.386,-5.548 v -34.419 c 0.781,-0.326 1.564,-0.653 2.346,-0.977 2.052,-0.824 4.076,-1.742 5.945,-2.931 2.204,-1.404 4.246,-3.159 5.642,-5.392 1.012,-1.599 1.628,-3.461 1.676,-5.357 0.062,-2.088 -0.568,-4.152 -1.585,-5.961 -1.333,-2.36 -3.256,-4.336 -5.371,-6.008 -2.711,-2.124 -5.742,-3.818 -8.902,-5.173 -3.573,-1.512 -7.3,-2.629 -11.075,-3.511 -5.909,-1.366 -11.941,-2.194 -17.997,-2.533 -2.471,-0.133 -4.948,-0.192 -7.423,-0.152 z m 3.3,14.833 c 1.223,0.017 2.445,0.152 3.641,0.394 1.762,0.362 3.481,0.954 5.076,1.788 2.647,1.458 4.65,3.952 5.709,6.764 0.923,2.433 1.174,5.168 0.442,7.686 -0.393,1.346 -1.104,2.597 -2.055,3.628 -0.572,0.762 -0.745,1.728 -0.898,2.646 -0.337,2.285 -0.358,4.599 -0.423,6.905 -0.102,4.965 0.021,9.934 -0.122,14.899 -0.059,1.698 -0.154,3.41 -0.551,5.068 -0.245,0.969 -0.666,1.944 -1.441,2.606 -0.701,0.6 -1.605,0.896 -2.502,1.046 -1.404,0.248 -2.836,0.233 -4.257,0.261 -0.57,0.007 -1.141,0.007 -1.711,0.007 -2.218,-0.024 -4.446,0.071 -6.655,-0.18 -0.993,-0.123 -2.014,-0.358 -2.84,-0.952 -0.647,-0.471 -1.106,-1.161 -1.383,-1.904 -0.432,-1.12 -0.574,-2.323 -0.69,-3.509 -0.187,-2.158 -0.188,-4.326 -0.209,-6.49 -0.025,-4.333 0.035,-8.668 -0.101,-12.998 -0.062,-1.682 -0.115,-3.371 -0.409,-5.03 -0.166,-0.952 -0.464,-1.92 -1.102,-2.665 -0.502,-0.539 -0.859,-1.196 -1.107,-1.887 -0.493,-1.407 -0.679,-2.906 -0.711,-4.391 -0.018,-1.591 0.144,-3.189 0.519,-4.736 0.329,-1.329 0.847,-2.632 1.685,-3.726 1.518,-2.02 3.716,-3.459 6.086,-4.285 1.928,-0.671 3.97,-0.97 6.009,-0.942 z m -1.896,64.147 c 0.468,-0.008 0.937,-0.008 1.405,0 2.733,0.047 5.466,0.31 8.146,0.855 1.261,0.266 2.517,0.604 3.686,1.155 0.778,0.377 1.436,0.95 2.064,1.536 0.689,0.668 1.308,1.456 1.595,2.385 0.218,0.734 0.16,1.555 -0.213,2.231 -0.493,0.943 -1.365,1.615 -2.263,2.149 -1.418,0.835 -2.994,1.357 -4.574,1.79 -1.876,0.478 -3.817,0.626 -5.746,0.682 -0.477,0.012 -0.956,0.017 -1.434,0.014 -3.039,-0.032 -6.09,-0.286 -9.058,-0.961 -1.548,-0.357 -3.106,-0.878 -4.364,-1.879 -0.834,-0.661 -1.523,-1.574 -1.718,-2.639 -0.161,-0.84 -0.008,-1.722 0.385,-2.48 0.612,-1.221 1.686,-2.141 2.845,-2.83 1.541,-0.91 3.282,-1.448 5.048,-1.705 1.389,-0.205 2.792,-0.286 4.196,-0.304 z m -0.369,23.042 c 1.22,-0.028 2.442,0 3.659,0.067 2.419,0.139 4.837,0.426 7.194,0.998 1.111,0.278 2.227,0.611 3.223,1.191 0.597,0.373 1.128,0.842 1.642,1.321 0.768,0.74 1.467,1.617 1.743,2.666 0.191,0.752 0.072,1.581 -0.353,2.234 -0.551,0.882 -1.445,1.483 -2.358,1.942 -1.6,0.792 -3.354,1.206 -5.105,1.499 -2.315,0.376 -4.664,0.493 -7.007,0.488 -2.872,-0.02 -5.764,-0.171 -8.578,-0.784 -1.514,-0.339 -3.03,-0.815 -4.331,-1.682 -0.833,-0.562 -1.562,-1.352 -1.843,-2.336 -0.254,-0.906 -0.054,-1.889 0.394,-2.701 0.647,-1.202 1.703,-2.131 2.848,-2.846 1.577,-0.982 3.389,-1.543 5.225,-1.777 1.209,-0.167 2.427,-0.253 3.647,-0.28 z m 2.136,22.2 c 1.773,0 3.546,0.126 5.298,0.399 1.279,0.214 2.567,0.484 3.755,1.021 0.553,0.265 1.127,0.581 1.447,1.128 0.398,0.678 0.513,1.473 0.62,2.239 0.204,1.727 0.235,3.47 0.276,5.207 0.076,4.498 0.051,8.996 0.057,13.494 -0.007,3.048 0.013,6.098 -0.133,9.142 -0.088,1.542 -0.198,3.096 -0.581,4.597 -0.258,0.983 -0.681,1.98 -1.477,2.649 -0.799,0.678 -1.851,0.939 -2.867,1.075 -1.562,0.195 -3.142,0.167 -4.714,0.175 -1.088,0 -2.176,0 -3.265,0 -1.469,-0.012 -2.948,0.001 -4.403,-0.23 -0.967,-0.158 -1.957,-0.475 -2.669,-1.179 -0.75,-0.733 -1.114,-1.758 -1.34,-2.76 -0.344,-1.589 -0.417,-3.221 -0.473,-4.841 -0.085,-3.207 -0.013,-6.415 0.029,-9.622 0.104,-6.792 0.209,-13.584 0.313,-20.376 1.271,-0.453 2.536,-0.922 3.81,-1.366 1.471,-0.454 3.013,-0.62 4.544,-0.709 0.59,-0.029 1.182,-0.043 1.773,-0.044 z"
       style="fill:url(#tilegreen)" />
    <path
       id="path9462"
       d="m 93.121,428.812 c -2.6556,-0.012 -5.3124,0.031 -7.9658,0.147 -2.7522,0.135 -5.513,0.294 -8.2308,0.773 -1.3796,0.269 -2.7436,0.61 -4.1016,0.971 -4.4036,1.191 -8.7406,2.693 -12.8188,4.751 -2.7426,1.393 -5.389,3.021 -7.7008,5.062 -1.9874,1.763 -3.7618,3.851 -4.7812,6.329 -0.7002,1.673 -0.985,3.526 -0.7516,5.329 0.2616,2.085 1.204,4.035 2.4654,5.698 1.1258,1.464 2.4584,2.77 3.9478,3.863 1.562,1.1 3.2262,2.068 4.9952,2.796 1.369,0.52 2.7758,0.934 4.1616,1.405 -0.0136,11.715 -0.0278,23.428 -0.0414,35.143 -0.5484,0.407 -1.0964,0.816 -1.6448,1.223 -1.191,0.904 -2.432,1.745 -3.5656,2.722 -1.7522,1.55 -3.3698,3.255 -4.8032,5.105 -1.1932,1.556 -2.217,3.238 -3.0952,4.99 -1.5038,2.992 -2.507,6.271 -2.666,9.627 -0.1774,3.398 0.5976,6.823 2.1372,9.851 1.7976,3.542 4.5284,6.537 7.6084,9.012 1.9942,1.555 4.0492,3.032 6.0704,4.551 v 33.153 c -0.6754,0.277 -1.3522,0.552 -2.0274,0.829 -0.8008,0.305 -1.5846,0.66 -2.3146,1.112 -1.5116,0.95 -2.8726,2.125 -4.1322,3.386 -1.6056,1.627 -3.074,3.397 -4.2906,5.334 -0.6836,1.108 -1.3176,2.27 -1.664,3.533 -0.4142,1.706 -0.4082,3.499 -0.104,5.222 0.8768,4.855 4.1542,9.201 8.562,11.409 1.9704,1.005 4.1768,1.468 6.375,1.58 3.1014,0.146 6.239,-0.283 9.167,-1.326 0.8784,-0.297 1.7068,-0.72 2.5694,-1.054 1.9634,-0.792 4.0838,-1.078 6.183,-1.232 3.2786,-0.224 6.5676,-0.253 9.854,-0.273 4.599,-0.011 9.1988,-0.036 13.7972,0.039 2.622,0.057 5.251,0.089 7.855,0.416 1.789,0.201 3.548,0.67 5.201,1.384 2.834,1.321 5.943,2.098 9.077,2.106 2.067,0.012 4.139,-0.301 6.102,-0.953 3,-0.985 5.753,-2.811 7.689,-5.321 1.998,-2.559 3.017,-5.836 2.914,-9.074 -0.066,-2.578 -0.959,-5.088 -2.327,-7.257 -1.717,-2.716 -4.109,-4.95 -6.747,-6.757 -1.753,-1.168 -3.575,-2.228 -5.359,-3.345 -0.031,-11.054 -0.05,-22.108 -0.06,-33.162 0.709,-0.44 1.419,-0.879 2.128,-1.319 1.46,-0.865 2.868,-1.824 4.176,-2.906 2.408,-2.007 4.586,-4.308 6.334,-6.915 1.295,-1.881 2.236,-4.005 2.739,-6.233 0.879,-3.847 0.523,-7.909 -0.682,-11.644 -1.747,-5.399 -5.167,-10.184 -9.485,-13.834 -1.667,-1.372 -3.409,-2.648 -5.111,-3.976 -0.044,-11.549 -0.074,-23.1 -0.098,-34.649 0.02,-0.108 -0.066,-0.29 0.098,-0.296 1.12,-0.409 2.246,-0.8 3.365,-1.212 1.692,-0.625 3.277,-1.51 4.755,-2.54 1.958,-1.378 3.731,-3.038 5.168,-4.957 0.995,-1.349 1.816,-2.868 2.137,-4.528 0.325,-1.6 0.198,-3.276 -0.305,-4.826 -0.712,-2.228 -2.088,-4.184 -3.685,-5.868 -2.286,-2.404 -5.048,-4.3 -7.932,-5.912 -3.92,-2.177 -8.131,-3.788 -12.422,-5.06 -1.919,-0.582 -3.9,-0.93 -5.885,-1.197 -4.269,-0.562 -8.569,-0.859 -12.87,-1.04 -2.6528,-0.105 -5.3084,-0.172 -7.964,-0.184 z m 2.5094,14.214 c 1.4624,0.021 2.9212,0.207 4.352,0.508 1.1946,0.24 2.3906,0.516 3.5246,0.97 1.054,0.483 1.925,1.28 2.714,2.115 1.329,1.445 2.394,3.126 3.18,4.923 0.638,1.472 1.052,3.068 1.001,4.682 -0.038,1.754 -0.591,3.451 -1.31,5.036 -0.429,0.963 -0.927,1.894 -1.254,2.898 -0.434,1.258 -0.686,2.573 -0.821,3.896 -0.272,2.449 -0.288,4.918 -0.331,7.381 -0.051,4.448 -0.012,8.897 -0.025,13.345 v 6.031 c -1.068,0.388 -2.111,0.849 -3.197,1.185 -1.532,0.406 -3.118,0.552 -4.6928,0.693 -1.1388,0.088 -2.2796,0.133 -3.422,0.13 -2.4688,-0.03 -4.9468,-0.205 -7.368,-0.706 -0.7188,-0.158 -1.4022,-0.438 -2.0846,-0.707 -0.519,-0.199 -1.0378,-0.398 -1.5572,-0.597 -0.009,-6.472 0.0234,-12.943 -0.0216,-19.415 -0.0278,-2.575 -0.0676,-5.157 -0.3574,-7.718 -0.2008,-1.644 -0.6054,-3.277 -1.3668,-4.758 -0.4866,-0.977 -1.0172,-1.942 -1.3448,-2.988 -0.8006,-2.38 -0.9136,-5.012 -0.1728,-7.422 0.7538,-2.504 2.356,-4.722 4.4298,-6.304 2.475,-1.907 5.5578,-2.948 8.663,-3.142 0.4872,-0.032 0.9746,-0.043 1.462,-0.036 z m -0.6724,64.037 c 0.38,-0.008 0.76,-0.008 1.1396,0 3.409,0.069 6.8364,0.695 9.9644,2.08 1.264,0.569 2.508,1.276 3.43,2.332 0.545,0.629 0.952,1.418 0.97,2.265 0.028,0.941 -0.437,1.832 -1.069,2.504 -0.772,0.836 -1.754,1.465 -2.819,1.856 -1.577,0.582 -3.238,0.897 -4.898,1.134 -2.3248,0.317 -4.673,0.449 -7.0182,0.44 -2.7166,-0.028 -5.4538,-0.197 -8.1006,-0.846 -1.012,-0.253 -1.996,-0.635 -2.8828,-1.189 -1.0626,-0.625 -2.0964,-1.387 -2.7554,-2.451 -0.4272,-0.708 -0.5974,-1.599 -0.3282,-2.395 0.3032,-0.962 1.0336,-1.721 1.8194,-2.32 1.389,-1.053 3.027,-1.717 4.6802,-2.231 2.5474,-0.774 5.2078,-1.137 7.8676,-1.181 z m -0.1596,23.097 c 1.158,-0.012 2.316,0.033 3.4688,0.137 2.7838,0.257 5.5618,0.86 8.1098,2.036 0.827,0.39 1.647,0.823 2.359,1.402 0.588,0.483 1.069,1.131 1.231,1.885 0.17,0.743 0.157,1.538 -0.079,2.266 -0.313,0.943 -0.999,1.719 -1.802,2.282 -1.179,0.84 -2.566,1.327 -3.957,1.686 -2.358,0.597 -4.7972,0.798 -7.2228,0.869 -0.536,0.013 -1.0722,0.018 -1.6084,0.016 -2.8838,-0.02 -5.79,-0.238 -8.5868,-0.977 -1.5404,-0.415 -3.0718,-0.995 -4.3448,-1.979 -0.8116,-0.633 -1.4934,-1.495 -1.7168,-2.518 -0.1854,-0.818 -0.042,-1.704 0.4014,-2.418 0.6036,-1.01 1.585,-1.726 2.5986,-2.287 1.677,-0.915 3.5316,-1.448 5.3964,-1.822 1.8946,-0.369 3.8226,-0.556 5.7526,-0.577 z m 1.059,22.093 c 0.905,0.008 1.8088,0.058 2.707,0.157 2.0916,0.236 4.1606,0.719 6.1206,1.493 0.418,0.164 0.805,0.444 1.022,0.846 0.345,0.63 0.441,1.357 0.536,2.058 0.192,1.713 0.216,3.439 0.252,5.16 0.063,4.45 0.04,8.902 0.045,13.353 v 16.046 c -0.939,0.423 -1.871,0.864 -2.814,1.277 -1.199,0.469 -2.481,0.677 -3.7528,0.834 -1.4014,0.163 -2.8126,0.226 -4.223,0.224 -2.0774,-0.013 -4.163,-0.147 -6.2036,-0.552 -0.9088,-0.195 -1.8312,-0.422 -2.6456,-0.885 -0.5944,-0.379 -1.1928,-0.82 -1.522,-1.462 -0.4062,-0.787 -0.5234,-1.682 -0.6284,-2.55 -0.1938,-1.882 -0.217,-3.775 -0.252,-5.665 -0.0578,-4.629 -0.0338,-9.257 -0.0398,-13.886 v -13.829 c 1.134,-0.436 2.2594,-0.898 3.4,-1.318 2.5634,-0.901 5.2828,-1.316 7.998,-1.301 z"
       style="fill:url(#tilegreen)" />
    <path
       id="path9476"
       d="m 235.609,428.619 c -1.268,0.007 -2.536,0.025 -3.804,0.058 -2.241,0.069 -4.483,0.16 -6.715,0.393 -2.487,0.247 -4.928,0.823 -7.328,1.507 -3.779,1.093 -7.493,2.412 -11.108,3.961 -1.909,0.829 -3.807,1.697 -5.616,2.729 -2.077,1.169 -3.934,2.694 -5.611,4.379 -1.216,1.244 -2.405,2.548 -3.266,4.071 -0.603,1.173 -1.237,2.364 -1.483,3.673 -0.238,1.234 0.029,2.493 0.365,3.682 0.457,1.833 1.373,3.542 2.556,5.012 2.018,2.499 4.689,4.414 7.579,5.782 1.692,0.775 3.442,1.414 5.162,2.121 v 6.993 c -0.019,6.893 0.068,13.787 -0.127,20.678 -0.075,2.163 -0.125,4.333 -0.331,6.488 -0.058,0.425 -0.065,0.86 -0.186,1.271 -0.011,0.126 -0.16,0.099 -0.249,0.142 -0.36,0.13 -0.675,0.36 -0.989,0.575 -0.997,0.728 -1.9,1.577 -2.792,2.428 -2.083,2.023 -4.042,4.173 -5.862,6.435 -0.832,1.053 -1.657,2.121 -2.299,3.304 -1.563,3.017 -2.603,6.333 -2.844,9.732 -0.267,3.561 0.436,7.184 1.982,10.4 1.816,3.788 4.714,6.977 8.052,9.49 1.85,1.352 3.765,2.612 5.645,3.921 v 33.394 c -0.595,0.278 -1.195,0.546 -1.791,0.82 -1.272,0.552 -2.467,1.267 -3.579,2.092 -2.169,1.627 -4.153,3.505 -5.878,5.597 -1.012,1.253 -1.992,2.564 -2.616,4.059 -0.975,2.54 -1.115,5.379 -0.471,8.018 0.859,3.495 3.069,6.596 5.97,8.701 2.971,2.166 6.661,3.249 10.322,3.263 2.455,0.018 4.905,-0.424 7.219,-1.236 0.948,-0.314 1.845,-0.758 2.767,-1.137 1.731,-0.724 3.593,-1.056 5.452,-1.232 2.358,-0.211 4.731,-0.271 7.099,-0.313 3.741,-0.055 7.481,-0.05 11.222,-0.047 3.522,0.012 7.047,0.018 10.566,0.175 2.072,0.107 4.159,0.257 6.171,0.779 1.088,0.276 2.129,0.693 3.153,1.144 3.449,1.542 7.32,2.174 11.074,1.683 3.374,-0.432 6.652,-1.802 9.229,-4.04 2.081,-1.79 3.648,-4.169 4.47,-6.788 0.4,-1.314 0.679,-2.684 0.645,-4.063 -0.079,-2.099 -0.784,-4.13 -1.767,-5.97 -1.774,-3.282 -4.395,-6.07 -7.44,-8.207 -1.779,-1.195 -3.613,-2.306 -5.417,-3.463 -0.026,-11.054 -0.054,-22.11 -0.08,-33.164 0.868,-0.54 1.74,-1.074 2.61,-1.61 1.552,-0.922 3.012,-1.996 4.361,-3.195 1.954,-1.748 3.734,-3.695 5.267,-5.823 1.14,-1.609 2.187,-3.32 2.798,-5.207 0.606,-1.953 0.794,-4.013 0.752,-6.05 -0.089,-3.338 -0.737,-6.674 -2.017,-9.763 -0.414,-1.043 -0.947,-2.038 -1.587,-2.961 -1.704,-2.412 -3.672,-4.63 -5.783,-6.692 -2.108,-1.988 -4.27,-3.917 -6.401,-5.879 V 466.05 c 1.059,-0.403 2.119,-0.807 3.178,-1.211 1.024,-0.371 2.04,-0.771 3.003,-1.283 2.283,-1.222 4.334,-2.872 6.033,-4.825 1.286,-1.499 2.413,-3.178 3.029,-5.069 0.48,-1.393 0.496,-2.911 0.214,-4.347 -0.505,-2.495 -1.723,-4.811 -3.339,-6.764 -0.955,-1.174 -2.089,-2.194 -3.326,-3.063 -2.188,-1.513 -4.542,-2.771 -6.948,-3.898 -3.51,-1.628 -7.133,-3.018 -10.84,-4.129 -2.397,-0.707 -4.821,-1.344 -7.296,-1.709 -3.1,-0.438 -6.224,-0.677 -9.349,-0.847 -3.799,-0.195 -7.605,-0.302 -11.41,-0.286 z m 2.62,14.385 c 0.416,0 0.833,0.007 1.249,0.018 2.248,0.089 4.494,0.431 6.64,1.112 1.148,0.373 2.258,0.912 3.177,1.704 1.338,1.117 2.408,2.522 3.304,4.009 0.913,1.543 1.621,3.226 1.945,4.995 0.159,0.916 0.153,1.861 -0.047,2.77 -0.284,1.453 -0.792,2.859 -1.453,4.181 -0.403,0.782 -0.923,1.503 -1.237,2.328 -0.481,1.171 -0.696,2.43 -0.825,3.684 -0.223,2.101 -0.242,4.216 -0.289,6.328 -0.074,4.588 0.02,9.178 -0.08,13.766 -0.054,1.665 -0.114,3.344 -0.47,4.977 -0.213,0.942 -0.576,1.898 -1.291,2.576 -0.713,0.685 -1.695,0.977 -2.648,1.137 -1.204,0.184 -2.426,0.204 -3.642,0.225 -1.671,0.018 -3.344,-0.007 -5.014,0.008 -1.699,-0.02 -3.414,0.015 -5.092,-0.296 -0.886,-0.173 -1.782,-0.511 -2.417,-1.176 -0.694,-0.713 -1.02,-1.69 -1.226,-2.643 -0.249,-1.209 -0.324,-2.445 -0.388,-3.675 -0.095,-2.16 -0.075,-4.322 -0.087,-6.483 -0.007,-4.148 0.039,-8.301 -0.17,-12.444 -0.112,-1.95 -0.298,-3.924 -0.966,-5.772 -0.36,-0.995 -0.86,-1.93 -1.348,-2.867 -0.723,-1.452 -1.307,-3.022 -1.333,-4.664 -0.032,-1.503 0.261,-3.003 0.763,-4.416 0.898,-2.471 2.457,-4.686 4.415,-6.432 1.372,-1.213 3.004,-2.183 4.808,-2.574 1.221,-0.275 2.471,-0.369 3.722,-0.376 z m 0.884,64.005 c 0.702,-0.008 1.404,0.009 2.104,0.041 2.482,0.125 4.965,0.492 7.333,1.261 1.536,0.513 3.037,1.245 4.219,2.373 0.684,0.666 1.201,1.535 1.318,2.493 0.121,0.861 -0.077,1.771 -0.592,2.477 -0.699,1.008 -1.77,1.68 -2.859,2.199 -1.852,0.87 -3.869,1.324 -5.882,1.636 -1.872,0.28 -3.766,0.397 -5.658,0.391 -3.026,-0.026 -6.074,-0.336 -8.977,-1.221 -1.443,-0.449 -2.871,-1.061 -4.037,-2.042 -0.737,-0.632 -1.339,-1.479 -1.491,-2.455 -0.172,-0.974 0.055,-2.032 0.693,-2.8 0.749,-0.946 1.832,-1.547 2.909,-2.047 1.497,-0.683 3.076,-1.165 4.664,-1.584 2.047,-0.497 4.152,-0.704 6.256,-0.722 z m 1.226,23.047 c 2.609,0.069 5.223,0.398 7.729,1.143 1.609,0.489 3.188,1.195 4.46,2.315 0.718,0.636 1.3,1.471 1.478,2.427 0.175,0.855 0.045,1.783 -0.433,2.522 -0.608,0.979 -1.587,1.657 -2.593,2.177 -1.726,0.879 -3.623,1.358 -5.521,1.695 -2.1,0.362 -4.234,0.512 -6.363,0.505 -2.848,-0.023 -5.712,-0.304 -8.461,-1.071 -1.52,-0.432 -3.029,-1.018 -4.291,-1.989 -0.795,-0.621 -1.479,-1.464 -1.684,-2.473 -0.205,-0.948 -0.039,-1.994 0.549,-2.78 0.651,-0.901 1.624,-1.5 2.603,-1.988 1.535,-0.751 3.175,-1.259 4.819,-1.711 2.513,-0.643 5.122,-0.829 7.708,-0.772 z m -0.826,22.166 c 0.633,0 1.267,0.029 1.897,0.072 2.443,0.18 4.881,0.642 7.163,1.546 0.433,0.166 0.853,0.424 1.093,0.832 0.361,0.604 0.462,1.319 0.561,2.004 0.198,1.643 0.224,3.301 0.262,4.954 0.068,4.27 0.046,8.54 0.051,12.81 v 16.926 c -0.944,0.426 -1.881,0.869 -2.83,1.283 -1.287,0.505 -2.663,0.73 -4.03,0.89 -1.268,0.139 -2.546,0.196 -3.821,0.193 -2.093,-0.015 -4.193,-0.164 -6.244,-0.599 -0.938,-0.213 -1.888,-0.466 -2.721,-0.962 -0.389,-0.248 -0.736,-0.559 -1.053,-0.891 -0.58,-0.615 -0.83,-1.453 -0.967,-2.268 -0.232,-1.42 -0.259,-2.862 -0.293,-4.298 -0.051,-3.43 0.016,-6.86 0.063,-10.29 0.106,-6.765 0.211,-13.529 0.316,-20.294 1.635,-0.432 3.266,-0.881 4.903,-1.302 1.85,-0.435 3.751,-0.615 5.65,-0.605 z"
       style="fill:url(#tilered)" />
    <path
       id="path9490"
       d="m 381.929,428.616 c -3.377,-0.028 -6.754,0.035 -10.127,0.214 -2.57,0.149 -5.15,0.335 -7.674,0.867 -3.962,0.897 -7.872,2.047 -11.649,3.549 -3.438,1.38 -6.786,3.036 -9.814,5.184 -2.254,1.612 -4.358,3.496 -5.917,5.804 -1.161,1.704 -1.984,3.672 -2.175,5.737 -0.201,1.993 0.258,4.017 1.15,5.799 0.811,1.601 1.938,3.027 3.215,4.282 1.595,1.575 3.482,2.829 5.467,3.856 1.82,0.98 3.829,1.509 5.775,2.17 l -0.04,34.557 c -0.022,0.115 0.027,0.235 -0.011,0.346 -1.059,0.81 -2.143,1.591 -3.213,2.387 -1.493,1.075 -2.871,2.302 -4.142,3.63 -1.654,1.704 -3.147,3.572 -4.381,5.603 -1.911,3.142 -3.354,6.62 -3.857,10.279 -0.546,3.738 0.044,7.622 1.62,11.051 1.622,3.524 4.174,6.555 7.105,9.067 2.224,1.86 4.609,3.512 6.918,5.262 v 32.753 c 0.016,0.075 0.026,0.189 -0.077,0.206 -0.744,0.296 -1.49,0.594 -2.231,0.899 -1.304,0.51 -2.498,1.265 -3.592,2.132 -2.134,1.704 -4.027,3.704 -5.653,5.896 -1.059,1.463 -2.069,2.996 -2.678,4.708 -0.537,1.6 -0.615,3.323 -0.429,4.991 0.539,4.692 3.332,9.027 7.276,11.595 1.778,1.185 3.827,1.94 5.935,2.269 3.113,0.454 6.314,0.25 9.358,-0.537 1.219,-0.303 2.403,-0.735 3.551,-1.244 1.614,-0.767 3.368,-1.209 5.138,-1.434 2.684,-0.308 5.388,-0.378 8.088,-0.423 4.951,-0.057 9.905,-0.067 14.856,-0.03 3.045,0.048 6.095,0.039 9.131,0.304 2.139,0.156 4.276,0.576 6.257,1.415 2.926,1.376 6.133,2.214 9.377,2.219 1.45,0.007 2.902,-0.143 4.318,-0.456 3.244,-0.702 6.319,-2.312 8.621,-4.721 2.376,-2.439 3.785,-5.772 3.956,-9.167 0.147,-2.364 -0.385,-4.746 -1.407,-6.874 -1.254,-2.593 -3.163,-4.825 -5.347,-6.683 -2.341,-2.01 -5.069,-3.479 -7.667,-5.118 -0.03,-10.98 -0.049,-21.96 -0.06,-32.94 1.517,-0.954 3.075,-1.846 4.538,-2.883 2.76,-1.998 5.234,-4.401 7.271,-7.135 1.41,-1.848 2.55,-3.918 3.226,-6.148 1.179,-3.887 1.041,-8.095 -0.041,-11.987 -1.366,-4.893 -4.116,-9.347 -7.678,-12.948 -2.184,-2.234 -4.768,-4.012 -7.217,-5.935 -0.043,-11.557 -0.078,-23.114 -0.098,-34.67 0.982,-0.37 1.978,-0.701 2.962,-1.065 2.609,-0.93 5.009,-2.399 7.1,-4.207 1.642,-1.437 3.151,-3.065 4.244,-4.964 0.959,-1.611 1.467,-3.496 1.39,-5.372 -0.089,-2.219 -0.971,-4.34 -2.206,-6.16 -1.738,-2.535 -4.079,-4.599 -6.598,-6.332 -4.319,-2.953 -9.166,-5.048 -14.134,-6.64 -1.821,-0.607 -3.682,-1.104 -5.575,-1.424 -3.982,-0.642 -8.005,-0.983 -12.03,-1.207 -3.371,-0.181 -6.749,-0.299 -10.126,-0.327 z m 1.104,14.128 c 0.818,-0.016 1.637,0.021 2.448,0.11 1.876,0.196 3.728,0.594 5.53,1.149 0.822,0.273 1.589,0.704 2.244,1.273 1.241,1.03 2.252,2.311 3.123,3.662 0.969,1.535 1.737,3.215 2.133,4.992 0.345,1.642 0.268,3.366 -0.204,4.976 -0.421,1.518 -1.135,2.931 -1.79,4.357 -0.701,1.639 -1.061,3.403 -1.22,5.173 -0.243,2.461 -0.252,4.938 -0.293,7.41 -0.048,4.707 -0.011,9.414 -0.022,14.122 v 5.039 c -1.584,0.562 -3.123,1.327 -4.806,1.562 -1.986,0.338 -4.002,0.473 -6.015,0.526 -0.226,0.007 -0.453,0.007 -0.679,0 -2.675,-0.036 -5.37,-0.199 -7.978,-0.831 -1.124,-0.332 -2.189,-0.832 -3.291,-1.22 -0.164,-0.107 -0.108,-0.33 -0.113,-0.491 -0.02,-7.294 0.055,-14.59 -0.071,-21.883 -0.061,-2.232 -0.146,-4.475 -0.594,-6.667 -0.3,-1.35 -0.827,-2.642 -1.503,-3.848 -0.73,-1.427 -1.272,-2.961 -1.477,-4.556 -0.34,-2.465 0.067,-5.042 1.232,-7.248 1.344,-2.602 3.603,-4.686 6.236,-5.947 2.209,-1.077 4.657,-1.612 7.11,-1.662 z m 0.563,64.115 c 1.317,0.008 2.633,0.095 3.939,0.265 2.74,0.374 5.45,1.14 7.891,2.458 1.106,0.619 2.156,1.429 2.808,2.536 0.47,0.823 0.626,1.852 0.287,2.751 -0.371,1.054 -1.194,1.878 -2.087,2.514 -1.085,0.76 -2.366,1.168 -3.641,1.479 -2.238,0.553 -4.542,0.786 -6.839,0.932 -1.132,0.062 -2.267,0.09 -3.401,0.079 -2.906,-0.038 -5.842,-0.229 -8.65,-1.028 -1.447,-0.448 -2.782,-1.223 -3.939,-2.195 -0.699,-0.615 -1.332,-1.373 -1.569,-2.292 -0.195,-0.772 -0.072,-1.618 0.34,-2.3 0.574,-1.028 1.535,-1.764 2.522,-2.369 1.78,-1.071 3.788,-1.693 5.803,-2.152 2.145,-0.467 4.341,-0.688 6.536,-0.678 z m -0.645,23.178 c 2.092,-0.018 4.184,0.161 6.24,0.541 2.366,0.451 4.699,1.204 6.775,2.44 0.792,0.482 1.561,1.099 1.951,1.963 0.35,0.791 0.402,1.695 0.233,2.537 -0.177,0.851 -0.659,1.617 -1.292,2.205 -0.971,0.913 -2.211,1.479 -3.463,1.9 -1.779,0.584 -3.64,0.875 -5.5,1.052 -1.564,0.142 -3.135,0.189 -4.705,0.183 -3.14,-0.032 -6.312,-0.294 -9.324,-1.229 -1.47,-0.468 -2.922,-1.128 -4.052,-2.203 -0.77,-0.752 -1.328,-1.779 -1.325,-2.874 -0.008,-0.881 0.368,-1.735 0.946,-2.39 0.86,-1.014 2.045,-1.681 3.242,-2.219 2.064,-0.906 4.291,-1.374 6.518,-1.661 1.246,-0.152 2.501,-0.234 3.756,-0.245 z m 0.478,22.177 c 1.458,-0.018 2.918,0.09 4.356,0.316 1.741,0.279 3.459,0.726 5.092,1.393 0.444,0.198 0.822,0.553 1.006,1.007 0.317,0.708 0.395,1.491 0.481,2.254 0.181,1.893 0.191,3.797 0.222,5.697 0.054,4.919 0.026,9.84 0.034,14.759 v 13.751 c -0.985,0.44 -1.956,0.914 -2.951,1.333 -1.38,0.513 -2.853,0.712 -4.31,0.861 -1.186,0.112 -2.377,0.158 -3.568,0.156 -2.21,-0.018 -4.432,-0.159 -6.594,-0.638 -0.933,-0.216 -1.887,-0.487 -2.667,-1.066 -0.529,-0.366 -1.01,-0.837 -1.254,-1.443 -0.375,-0.867 -0.468,-1.821 -0.564,-2.751 -0.185,-2.102 -0.194,-4.214 -0.224,-6.322 -0.047,-5.073 -0.02,-10.148 -0.028,-15.221 v -11.455 c 1.269,-0.484 2.519,-1.017 3.804,-1.458 2.309,-0.763 4.735,-1.143 7.165,-1.173 z"
       style="fill:url(#tilegreen)" />
  </g>
</svg>
